<mxfile host="app.diagrams.net" modified="2020-09-17T22:22:07.624Z" agent="5.0 (Windows)" etag="gSg42P3klhZy3L4ktLfC" version="13.7.3" type="gitlab">
  <diagram id="beiPa8BHD_OdnOx-yBbd" name="Page-1">
    <mxGraphModel dx="3655" dy="2028" grid="1" gridSize="10" guides="0" tooltips="1" connect="1" arrows="1" fold="1" page="1" pageScale="1" pageWidth="850" pageHeight="1100" math="0" shadow="0">
      <root>
        <mxCell id="0" />
        <mxCell id="1" parent="0" />
        <mxCell id="B4sxJnHl5gxaD_2t0ISS-19" value="" style="endArrow=classic;html=1;strokeWidth=2;fontFamily=Georgia;fontSize=25;fontStyle=1" parent="1" edge="1">
          <mxGeometry width="50" height="50" relative="1" as="geometry">
            <mxPoint x="271.50000000000006" y="187.5" as="sourcePoint" />
            <mxPoint x="271.92" y="325" as="targetPoint" />
          </mxGeometry>
        </mxCell>
        <mxCell id="B4sxJnHl5gxaD_2t0ISS-20" value="" style="endArrow=classic;html=1;strokeWidth=2;fontFamily=Georgia;fontSize=25;fontStyle=1" parent="1" edge="1">
          <mxGeometry width="50" height="50" relative="1" as="geometry">
            <mxPoint x="270" y="540" as="sourcePoint" />
            <mxPoint x="270.41999999999985" y="677.4999999999998" as="targetPoint" />
          </mxGeometry>
        </mxCell>
        <mxCell id="B4sxJnHl5gxaD_2t0ISS-25" value="" style="ellipse;whiteSpace=wrap;html=1;rotation=130;direction=south;fillColor=#FFFFFF;fontFamily=Georgia;fontSize=25;fontStyle=1;strokeWidth=2;" parent="1" vertex="1">
          <mxGeometry x="280" y="345.62" width="95" height="80" as="geometry" />
        </mxCell>
        <mxCell id="B4sxJnHl5gxaD_2t0ISS-26" value="" style="ellipse;whiteSpace=wrap;html=1;direction=north;rotation=-45;fillColor=#FFFFFF;fontFamily=Georgia;fontSize=25;fontStyle=1;strokeWidth=2;" parent="1" vertex="1">
          <mxGeometry x="180.92" y="378.21" width="175" height="149.67" as="geometry" />
        </mxCell>
        <mxCell id="B4sxJnHl5gxaD_2t0ISS-27" value="" style="ellipse;whiteSpace=wrap;html=1;aspect=fixed;strokeColor=#000000;fillColor=#FFFFFF;fontFamily=Georgia;fontSize=25;fontStyle=1;strokeWidth=2;" parent="1" vertex="1">
          <mxGeometry x="175.8" y="720" width="220" height="220" as="geometry" />
        </mxCell>
        <mxCell id="B4sxJnHl5gxaD_2t0ISS-28" value="" style="ellipse;whiteSpace=wrap;html=1;aspect=fixed;strokeColor=#000000;fillColor=#FFFFFF;fontFamily=Georgia;fontSize=25;fontStyle=1;strokeWidth=2;" parent="1" vertex="1">
          <mxGeometry x="200" y="750" width="80" height="80" as="geometry" />
        </mxCell>
        <mxCell id="B4sxJnHl5gxaD_2t0ISS-29" value="" style="ellipse;whiteSpace=wrap;html=1;aspect=fixed;strokeColor=#000000;fillColor=#FFFFFF;fontFamily=Georgia;fontSize=25;fontStyle=1;strokeWidth=2;" parent="1" vertex="1">
          <mxGeometry x="287.5" y="750" width="80" height="80" as="geometry" />
        </mxCell>
        <mxCell id="B4sxJnHl5gxaD_2t0ISS-30" value="" style="ellipse;whiteSpace=wrap;html=1;aspect=fixed;strokeColor=#000000;fillColor=#FFFFFF;fontFamily=Georgia;fontSize=25;fontStyle=1;strokeWidth=2;" parent="1" vertex="1">
          <mxGeometry x="207.5" y="840" width="80" height="80" as="geometry" />
        </mxCell>
        <mxCell id="B4sxJnHl5gxaD_2t0ISS-31" value="" style="ellipse;whiteSpace=wrap;html=1;aspect=fixed;strokeColor=#000000;fillColor=#FFFFFF;fontFamily=Georgia;fontSize=25;fontStyle=1;strokeWidth=2;" parent="1" vertex="1">
          <mxGeometry x="292" y="836" width="80" height="80" as="geometry" />
        </mxCell>
        <mxCell id="B4sxJnHl5gxaD_2t0ISS-32" value="&lt;font style=&quot;font-size: 25px;&quot;&gt;X&lt;/font&gt;" style="text;html=1;align=center;verticalAlign=middle;resizable=0;points=[];autosize=1;fontFamily=Georgia;fontSize=25;fontStyle=1;strokeWidth=2;" parent="1" vertex="1">
          <mxGeometry x="252.5" y="110" width="40" height="40" as="geometry" />
        </mxCell>
        <mxCell id="B4sxJnHl5gxaD_2t0ISS-33" value="" style="endArrow=classic;html=1;strokeWidth=2;fontFamily=Georgia;fontSize=25;fontStyle=1" parent="1" edge="1">
          <mxGeometry width="50" height="50" relative="1" as="geometry">
            <mxPoint x="278" y="970" as="sourcePoint" />
            <mxPoint x="278.4200000000001" y="1107.5" as="targetPoint" />
          </mxGeometry>
        </mxCell>
        <mxCell id="B4sxJnHl5gxaD_2t0ISS-39" value="" style="ellipse;whiteSpace=wrap;html=1;rotation=130;direction=south;fillColor=#FFFFFF;fontFamily=Georgia;fontSize=25;fontStyle=1;strokeWidth=2;" parent="1" vertex="1">
          <mxGeometry x="258.41999999999996" y="1205" width="70" height="60" as="geometry" />
        </mxCell>
        <mxCell id="B4sxJnHl5gxaD_2t0ISS-40" value="" style="ellipse;whiteSpace=wrap;html=1;direction=north;rotation=-45;fillColor=#FFFFFF;fontFamily=Georgia;fontSize=25;fontStyle=1;strokeWidth=2;" parent="1" vertex="1">
          <mxGeometry x="193.42" y="1230" width="120" height="100" as="geometry" />
        </mxCell>
        <mxCell id="B4sxJnHl5gxaD_2t0ISS-48" value="" style="endArrow=classic;html=1;strokeWidth=2;fontFamily=Georgia;fontSize=25;fontStyle=1" parent="1" edge="1">
          <mxGeometry width="50" height="50" relative="1" as="geometry">
            <mxPoint x="280" y="1380" as="sourcePoint" />
            <mxPoint x="280.4200000000001" y="1517.5" as="targetPoint" />
          </mxGeometry>
        </mxCell>
        <mxCell id="B4sxJnHl5gxaD_2t0ISS-50" value="&lt;font style=&quot;font-size: 25px;&quot;&gt;&lt;span style=&quot;font-size: 25px;&quot;&gt;&lt;font style=&quot;font-size: 25px;&quot;&gt;Mating&lt;/font&gt;&lt;/span&gt;&lt;/font&gt;" style="text;html=1;align=center;verticalAlign=middle;resizable=0;points=[];autosize=1;fontFamily=Georgia;fontSize=25;fontStyle=1;strokeWidth=2;" parent="1" vertex="1">
          <mxGeometry x="290" y="242" width="110" height="40" as="geometry" />
        </mxCell>
        <mxCell id="B4sxJnHl5gxaD_2t0ISS-51" value="&lt;font style=&quot;font-size: 25px;&quot;&gt;&lt;span style=&quot;font-size: 25px;&quot;&gt;&lt;font style=&quot;font-size: 25px;&quot;&gt;Sporulation&lt;/font&gt;&lt;/span&gt;&lt;/font&gt;" style="text;html=1;align=center;verticalAlign=middle;resizable=0;points=[];autosize=1;fontFamily=Georgia;fontSize=25;fontStyle=1;strokeWidth=2;" parent="1" vertex="1">
          <mxGeometry x="290" y="590" width="170" height="40" as="geometry" />
        </mxCell>
        <mxCell id="B4sxJnHl5gxaD_2t0ISS-52" value="&lt;div style=&quot;font-size: 25px;&quot;&gt;&lt;font style=&quot;font-size: 25px;&quot;&gt;&lt;span style=&quot;font-size: 25px;&quot;&gt;&lt;font style=&quot;font-size: 25px;&quot;&gt;Germination&lt;/font&gt;&lt;/span&gt;&lt;/font&gt;&lt;/div&gt;" style="text;html=1;align=center;verticalAlign=middle;resizable=0;points=[];autosize=1;fontFamily=Georgia;fontSize=25;fontStyle=1;strokeWidth=2;" parent="1" vertex="1">
          <mxGeometry x="299" y="1006" width="180" height="40" as="geometry" />
        </mxCell>
        <mxCell id="B4sxJnHl5gxaD_2t0ISS-53" value="&lt;div style=&quot;font-size: 25px;&quot;&gt;&lt;font style=&quot;font-size: 25px;&quot;&gt;&lt;span style=&quot;font-size: 25px;&quot;&gt;&lt;font style=&quot;font-size: 25px;&quot;&gt;Haploid Selection&lt;br style=&quot;font-size: 25px;&quot;&gt;&lt;/font&gt;&lt;/span&gt;&lt;/font&gt;&lt;/div&gt;" style="text;html=1;align=center;verticalAlign=middle;resizable=0;points=[];autosize=1;fontFamily=Georgia;fontSize=25;fontStyle=1;strokeWidth=2;" parent="1" vertex="1">
          <mxGeometry x="310" y="1416" width="240" height="40" as="geometry" />
        </mxCell>
        <mxCell id="B4sxJnHl5gxaD_2t0ISS-54" value="&lt;font style=&quot;font-size: 25px;&quot;&gt;&lt;span style=&quot;font-size: 25px;&quot;&gt;&lt;font style=&quot;font-size: 25px;&quot;&gt;ORF-GFP::His3&lt;/font&gt;&lt;/span&gt;&lt;/font&gt;" style="text;html=1;align=center;verticalAlign=middle;resizable=0;points=[];autosize=1;fontFamily=Georgia;fontSize=25;fontStyle=1;strokeWidth=2;" parent="1" vertex="1">
          <mxGeometry x="280" y="180" width="220" height="40" as="geometry" />
        </mxCell>
        <mxCell id="B4sxJnHl5gxaD_2t0ISS-78" value="&lt;font style=&quot;font-size: 25px;&quot;&gt;&lt;span style=&quot;font-size: 25px;&quot;&gt;&lt;font style=&quot;font-size: 25px;&quot;&gt;MATa&lt;/font&gt;&lt;/span&gt;&lt;/font&gt;" style="text;html=1;align=center;verticalAlign=middle;resizable=0;points=[];autosize=1;fontFamily=Georgia;fontSize=25;fontStyle=1;strokeWidth=2;" parent="1" vertex="1">
          <mxGeometry x="440" y="112.5" width="90" height="40" as="geometry" />
        </mxCell>
        <mxCell id="B4sxJnHl5gxaD_2t0ISS-79" value="&lt;font style=&quot;font-size: 25px;&quot;&gt;&lt;span style=&quot;font-size: 25px;&quot;&gt;&lt;font style=&quot;font-size: 25px;&quot;&gt;MATÎ±&lt;/font&gt;&lt;/span&gt;&lt;/font&gt;" style="text;html=1;align=center;verticalAlign=middle;resizable=0;points=[];autosize=1;fontFamily=Georgia;fontSize=25;fontStyle=1;strokeWidth=2;" parent="1" vertex="1">
          <mxGeometry x="4" y="116" width="90" height="40" as="geometry" />
        </mxCell>
        <mxCell id="uPPyn5asTpFvwDlICpT2-1" value="" style="ellipse;whiteSpace=wrap;html=1;rotation=130;direction=south;fillColor=#FFFFFF;fontFamily=Georgia;fontSize=25;fontStyle=1;strokeWidth=2;" parent="1" vertex="1">
          <mxGeometry x="380" y="50" width="70" height="60" as="geometry" />
        </mxCell>
        <mxCell id="uPPyn5asTpFvwDlICpT2-2" value="" style="ellipse;whiteSpace=wrap;html=1;direction=north;rotation=-45;fillColor=#FFFFFF;fontFamily=Georgia;fontSize=25;fontStyle=1;strokeWidth=2;" parent="1" vertex="1">
          <mxGeometry x="315" y="75" width="120" height="100" as="geometry" />
        </mxCell>
        <mxCell id="uPPyn5asTpFvwDlICpT2-3" value="" style="whiteSpace=wrap;html=1;aspect=fixed;strokeColor=#000000;fillColor=#60A917;direction=south;fontFamily=Georgia;fontSize=25;fontStyle=1;strokeWidth=2;" parent="1" vertex="1">
          <mxGeometry x="361" y="112.5" width="28" height="28" as="geometry" />
        </mxCell>
        <mxCell id="uPPyn5asTpFvwDlICpT2-4" value="" style="ellipse;whiteSpace=wrap;html=1;rotation=130;direction=south;fillColor=#FFFFFF;fontFamily=Georgia;fontSize=25;fontStyle=1;strokeWidth=2;" parent="1" vertex="1">
          <mxGeometry x="165" y="50" width="70" height="60" as="geometry" />
        </mxCell>
        <mxCell id="uPPyn5asTpFvwDlICpT2-5" value="" style="ellipse;whiteSpace=wrap;html=1;direction=north;rotation=-45;fillColor=#FFFFFF;fontFamily=Georgia;fontSize=25;fontStyle=1;strokeWidth=2;" parent="1" vertex="1">
          <mxGeometry x="100.00000000000001" y="75" width="120" height="100" as="geometry" />
        </mxCell>
        <mxCell id="uPPyn5asTpFvwDlICpT2-6" value="" style="whiteSpace=wrap;html=1;aspect=fixed;strokeColor=#000000;direction=south;fillColor=#FFFFFF;fontFamily=Georgia;fontSize=25;fontStyle=1;strokeWidth=2;" parent="1" vertex="1">
          <mxGeometry x="146" y="112.5" width="28" height="28" as="geometry" />
        </mxCell>
        <mxCell id="uPPyn5asTpFvwDlICpT2-7" value="" style="whiteSpace=wrap;html=1;aspect=fixed;strokeColor=#000000;direction=south;fillColor=#FFFFFF;fontFamily=Georgia;fontSize=25;fontStyle=1;strokeWidth=2;" parent="1" vertex="1">
          <mxGeometry x="230" y="440" width="28" height="28" as="geometry" />
        </mxCell>
        <mxCell id="uPPyn5asTpFvwDlICpT2-8" value="" style="whiteSpace=wrap;html=1;aspect=fixed;strokeColor=#000000;fillColor=#60A917;direction=south;fontFamily=Georgia;fontSize=25;fontStyle=1;strokeWidth=2;" parent="1" vertex="1">
          <mxGeometry x="280" y="440" width="28" height="28" as="geometry" />
        </mxCell>
        <mxCell id="uPPyn5asTpFvwDlICpT2-9" value="" style="whiteSpace=wrap;html=1;aspect=fixed;strokeColor=#000000;direction=south;fillColor=#FFFFFF;fontFamily=Georgia;fontSize=25;fontStyle=1;strokeWidth=2;" parent="1" vertex="1">
          <mxGeometry x="226" y="777" width="28" height="28" as="geometry" />
        </mxCell>
        <mxCell id="uPPyn5asTpFvwDlICpT2-10" value="" style="whiteSpace=wrap;html=1;aspect=fixed;strokeColor=#000000;direction=south;fillColor=#FFFFFF;fontFamily=Georgia;fontSize=25;fontStyle=1;strokeWidth=2;" parent="1" vertex="1">
          <mxGeometry x="314" y="778" width="28" height="28" as="geometry" />
        </mxCell>
        <mxCell id="uPPyn5asTpFvwDlICpT2-11" value="" style="whiteSpace=wrap;html=1;aspect=fixed;strokeColor=#000000;direction=south;fillColor=#FFFFFF;fontFamily=Georgia;fontSize=25;fontStyle=1;strokeWidth=2;" parent="1" vertex="1">
          <mxGeometry x="318" y="864" width="28" height="28" as="geometry" />
        </mxCell>
        <mxCell id="uPPyn5asTpFvwDlICpT2-12" value="" style="whiteSpace=wrap;html=1;aspect=fixed;strokeColor=#000000;fillColor=#60A917;direction=south;fontFamily=Georgia;fontSize=25;fontStyle=1;strokeWidth=2;" parent="1" vertex="1">
          <mxGeometry x="240" y="1270" width="28" height="28" as="geometry" />
        </mxCell>
        <mxCell id="uPPyn5asTpFvwDlICpT2-13" value="" style="ellipse;whiteSpace=wrap;html=1;rotation=130;direction=south;fillColor=#FFFFFF;fontFamily=Georgia;fontSize=25;fontStyle=1;strokeWidth=2;" parent="1" vertex="1">
          <mxGeometry x="95" y="1200" width="70" height="60" as="geometry" />
        </mxCell>
        <mxCell id="uPPyn5asTpFvwDlICpT2-14" value="" style="ellipse;whiteSpace=wrap;html=1;direction=north;rotation=-45;fillColor=#FFFFFF;fontFamily=Georgia;fontSize=25;fontStyle=1;strokeWidth=2;" parent="1" vertex="1">
          <mxGeometry x="30.000000000000014" y="1225" width="120" height="100" as="geometry" />
        </mxCell>
        <mxCell id="uPPyn5asTpFvwDlICpT2-15" value="" style="whiteSpace=wrap;html=1;aspect=fixed;strokeColor=#000000;direction=south;fillColor=#FFFFFF;fontFamily=Georgia;fontSize=25;fontStyle=1;strokeWidth=2;" parent="1" vertex="1">
          <mxGeometry x="76" y="1262.5" width="28" height="28" as="geometry" />
        </mxCell>
        <mxCell id="uPPyn5asTpFvwDlICpT2-16" value="" style="ellipse;whiteSpace=wrap;html=1;rotation=130;direction=south;fillColor=#FFFFFF;fontFamily=Georgia;fontSize=25;fontStyle=1;strokeWidth=2;" parent="1" vertex="1">
          <mxGeometry x="415" y="1210" width="70" height="60" as="geometry" />
        </mxCell>
        <mxCell id="uPPyn5asTpFvwDlICpT2-17" value="" style="ellipse;whiteSpace=wrap;html=1;direction=north;rotation=-45;fillColor=#FFFFFF;fontFamily=Georgia;fontSize=25;fontStyle=1;strokeWidth=2;" parent="1" vertex="1">
          <mxGeometry x="350" y="1235" width="120" height="100" as="geometry" />
        </mxCell>
        <mxCell id="uPPyn5asTpFvwDlICpT2-18" value="" style="whiteSpace=wrap;html=1;aspect=fixed;strokeColor=#000000;direction=south;fillColor=#FFFFFF;fontFamily=Georgia;fontSize=25;fontStyle=1;strokeWidth=2;" parent="1" vertex="1">
          <mxGeometry x="396" y="1272.5" width="28" height="28" as="geometry" />
        </mxCell>
        <mxCell id="uPPyn5asTpFvwDlICpT2-19" value="" style="ellipse;whiteSpace=wrap;html=1;rotation=130;direction=south;fillColor=#FFFFFF;fontFamily=Georgia;fontSize=25;fontStyle=1;strokeWidth=2;" parent="1" vertex="1">
          <mxGeometry x="565" y="1220" width="70" height="60" as="geometry" />
        </mxCell>
        <mxCell id="uPPyn5asTpFvwDlICpT2-20" value="" style="ellipse;whiteSpace=wrap;html=1;direction=north;rotation=-45;fillColor=#FFFFFF;fontFamily=Georgia;fontSize=25;fontStyle=1;strokeWidth=2;" parent="1" vertex="1">
          <mxGeometry x="500" y="1245" width="120" height="100" as="geometry" />
        </mxCell>
        <mxCell id="uPPyn5asTpFvwDlICpT2-21" value="" style="whiteSpace=wrap;html=1;aspect=fixed;strokeColor=#000000;direction=south;fillColor=#FFFFFF;fontFamily=Georgia;fontSize=25;fontStyle=1;strokeWidth=2;" parent="1" vertex="1">
          <mxGeometry x="546" y="1282.5" width="28" height="28" as="geometry" />
        </mxCell>
        <mxCell id="uPPyn5asTpFvwDlICpT2-23" value="" style="ellipse;whiteSpace=wrap;html=1;rotation=130;direction=south;fillColor=#FFFFFF;fontFamily=Georgia;fontSize=25;fontStyle=1;strokeWidth=2;" parent="1" vertex="1">
          <mxGeometry x="295" y="1530" width="70" height="60" as="geometry" />
        </mxCell>
        <mxCell id="uPPyn5asTpFvwDlICpT2-24" value="" style="ellipse;whiteSpace=wrap;html=1;direction=north;rotation=-45;fillColor=#FFFFFF;fontFamily=Georgia;fontSize=25;fontStyle=1;strokeWidth=2;" parent="1" vertex="1">
          <mxGeometry x="230" y="1555" width="120" height="100" as="geometry" />
        </mxCell>
        <mxCell id="uPPyn5asTpFvwDlICpT2-25" value="" style="whiteSpace=wrap;html=1;aspect=fixed;strokeColor=#000000;fillColor=#60A917;direction=south;fontFamily=Georgia;fontSize=25;fontStyle=1;strokeWidth=2;" parent="1" vertex="1">
          <mxGeometry x="276" y="1592.5" width="28" height="28" as="geometry" />
        </mxCell>
        <mxCell id="uPPyn5asTpFvwDlICpT2-26" value="" style="whiteSpace=wrap;html=1;aspect=fixed;strokeColor=#000000;fillColor=#60A917;direction=south;fontFamily=Georgia;fontSize=25;fontStyle=1;strokeWidth=2;" parent="1" vertex="1">
          <mxGeometry x="232" y="867" width="28" height="28" as="geometry" />
        </mxCell>
        <mxCell id="uPPyn5asTpFvwDlICpT2-27" value="&lt;font style=&quot;font-size: 25px;&quot;&gt;&lt;span style=&quot;font-size: 25px;&quot;&gt;&lt;font style=&quot;font-size: 25px;&quot;&gt;Diploid cells&lt;br style=&quot;font-size: 25px;&quot;&gt;&lt;/font&gt;&lt;/span&gt;&lt;/font&gt;" style="text;html=1;align=center;verticalAlign=middle;resizable=0;points=[];autosize=1;fontFamily=Georgia;fontSize=25;fontStyle=1;strokeWidth=2;" parent="1" vertex="1">
          <mxGeometry x="-219.9999999999999" y="448.05" width="180" height="40" as="geometry" />
        </mxCell>
        <mxCell id="uPPyn5asTpFvwDlICpT2-28" value="&lt;font style=&quot;font-size: 25px;&quot;&gt;&lt;span style=&quot;font-size: 25px;&quot;&gt;&lt;font style=&quot;font-size: 25px;&quot;&gt;Spores&lt;br style=&quot;font-size: 25px;&quot;&gt;&lt;/font&gt;&lt;/span&gt;&lt;/font&gt;" style="text;html=1;align=center;verticalAlign=middle;resizable=0;points=[];autosize=1;fontFamily=Georgia;fontSize=25;fontStyle=1;strokeWidth=2;" parent="1" vertex="1">
          <mxGeometry x="-196.9999999999999" y="790" width="100" height="40" as="geometry" />
        </mxCell>
        <mxCell id="uPPyn5asTpFvwDlICpT2-29" value="&lt;font style=&quot;font-size: 25px;&quot;&gt;&lt;span style=&quot;font-size: 25px;&quot;&gt;&lt;font style=&quot;font-size: 25px;&quot;&gt;Haploid cells&lt;br style=&quot;font-size: 25px;&quot;&gt;&lt;/font&gt;&lt;/span&gt;&lt;/font&gt;" style="text;html=1;align=center;verticalAlign=middle;resizable=0;points=[];autosize=1;fontFamily=Georgia;fontSize=25;fontStyle=1;strokeWidth=2;" parent="1" vertex="1">
          <mxGeometry x="-209.9999999999999" y="120" width="180" height="40" as="geometry" />
        </mxCell>
        <mxCell id="uPPyn5asTpFvwDlICpT2-31" value="&lt;font style=&quot;font-size: 25px;&quot;&gt;&lt;span style=&quot;font-size: 25px;&quot;&gt;&lt;font style=&quot;font-size: 25px;&quot;&gt;Haploid cells&lt;br style=&quot;font-size: 25px;&quot;&gt;&lt;/font&gt;&lt;/span&gt;&lt;/font&gt;" style="text;html=1;align=center;verticalAlign=middle;resizable=0;points=[];autosize=1;fontFamily=Georgia;fontSize=25;fontStyle=1;strokeWidth=2;" parent="1" vertex="1">
          <mxGeometry x="-209.9999999999999" y="1270" width="180" height="40" as="geometry" />
        </mxCell>
        <mxCell id="uPPyn5asTpFvwDlICpT2-32" value="&lt;font style=&quot;font-size: 25px;&quot;&gt;&lt;span style=&quot;font-size: 25px;&quot;&gt;&lt;font style=&quot;font-size: 25px;&quot;&gt;Haploid cells&lt;br style=&quot;font-size: 25px;&quot;&gt;&lt;/font&gt;&lt;/span&gt;&lt;/font&gt;" style="text;html=1;align=center;verticalAlign=middle;resizable=0;points=[];autosize=1;fontFamily=Georgia;fontSize=25;fontStyle=1;strokeWidth=2;" parent="1" vertex="1">
          <mxGeometry x="-209.9999999999999" y="1590" width="180" height="40" as="geometry" />
        </mxCell>
      </root>
    </mxGraphModel>
  </diagram>
</mxfile>
